<svg width="192" height="108" viewBox="0 0 192 108" fill="none" xmlns="http://www.w3.org/2000/svg">
<rect width="192" height="108" fill="#FEECC9"/>
<path d="M88.6844 40.1578C90.1232 40.1578 91.2896 38.9914 91.2896 37.5525C91.2896 36.1137 90.1232 34.9473 88.6844 34.9473C87.2455 34.9473 86.0791 36.1137 86.0791 37.5525C86.0791 38.9914 87.2455 40.1578 88.6844 40.1578Z" stroke="#FEA800" stroke-width="3" stroke-linecap="round" stroke-linejoin="round"/>
<path d="M80 44.5C80 36.7224 80 32.8319 82.4159 30.4159C84.8319 28 88.7207 28 96.5 28C104.278 28 108.168 28 110.584 30.4159C113 32.8319 113 36.7207 113 44.5C113 52.2776 113 56.1681 110.584 58.5841C108.168 61 104.279 61 96.5 61C88.7224 61 84.8319 61 82.4159 58.5841C80 56.1681 80 52.2793 80 44.5Z" stroke="#FEA800" stroke-width="3" stroke-linecap="round" stroke-linejoin="round"/>
<path d="M85 60C92.5935 50.925 100.45 39.9569 112.997 48.0471" stroke="#FEA800" stroke-width="3" stroke-linecap="round" stroke-linejoin="round"/>
<path d="M79.064 69.402V78H78.482C78.39 78 78.312 77.984 78.248 77.952C78.188 77.92 78.128 77.866 78.068 77.79L73.094 71.31C73.102 71.41 73.108 71.508 73.112 71.604C73.116 71.7 73.118 71.79 73.118 71.874V78H72.098V69.402H72.698C72.75 69.402 72.794 69.406 72.83 69.414C72.866 69.418 72.898 69.428 72.926 69.444C72.954 69.456 72.982 69.476 73.01 69.504C73.038 69.528 73.068 69.56 73.1 69.6L78.074 76.074C78.066 75.97 78.058 75.87 78.05 75.774C78.046 75.674 78.044 75.58 78.044 75.492V69.402H79.064ZM83.3846 71.826C83.8286 71.826 84.2286 71.9 84.5846 72.048C84.9406 72.196 85.2446 72.406 85.4966 72.678C85.7486 72.95 85.9406 73.28 86.0726 73.668C86.2086 74.052 86.2766 74.482 86.2766 74.958C86.2766 75.438 86.2086 75.87 86.0726 76.254C85.9406 76.638 85.7486 76.966 85.4966 77.238C85.2446 77.51 84.9406 77.72 84.5846 77.868C84.2286 78.012 83.8286 78.084 83.3846 78.084C82.9366 78.084 82.5326 78.012 82.1726 77.868C81.8166 77.72 81.5126 77.51 81.2606 77.238C81.0086 76.966 80.8146 76.638 80.6786 76.254C80.5466 75.87 80.4806 75.438 80.4806 74.958C80.4806 74.482 80.5466 74.052 80.6786 73.668C80.8146 73.28 81.0086 72.95 81.2606 72.678C81.5126 72.406 81.8166 72.196 82.1726 72.048C82.5326 71.9 82.9366 71.826 83.3846 71.826ZM83.3846 77.25C83.9846 77.25 84.4326 77.05 84.7286 76.65C85.0246 76.246 85.1726 75.684 85.1726 74.964C85.1726 74.24 85.0246 73.676 84.7286 73.272C84.4326 72.868 83.9846 72.666 83.3846 72.666C83.0806 72.666 82.8146 72.718 82.5866 72.822C82.3626 72.926 82.1746 73.076 82.0226 73.272C81.8746 73.468 81.7626 73.71 81.6866 73.998C81.6146 74.282 81.5786 74.604 81.5786 74.964C81.5786 75.684 81.7266 76.246 82.0226 76.65C82.3226 77.05 82.7766 77.25 83.3846 77.25ZM92.1175 78H90.9535V69.402H92.1175V78ZM93.971 78V71.922H94.613C94.765 71.922 94.859 71.996 94.895 72.144L94.973 72.768C95.197 72.492 95.449 72.266 95.729 72.09C96.009 71.914 96.333 71.826 96.701 71.826C97.109 71.826 97.439 71.94 97.691 72.168C97.947 72.396 98.131 72.704 98.243 73.092C98.331 72.872 98.443 72.682 98.579 72.522C98.719 72.362 98.875 72.23 99.047 72.126C99.219 72.022 99.401 71.946 99.593 71.898C99.789 71.85 99.987 71.826 100.187 71.826C100.507 71.826 100.791 71.878 101.039 71.982C101.291 72.082 101.503 72.23 101.675 72.426C101.851 72.622 101.985 72.864 102.077 73.152C102.169 73.436 102.215 73.762 102.215 74.13V78H101.141V74.13C101.141 73.654 101.037 73.294 100.829 73.05C100.621 72.802 100.321 72.678 99.929 72.678C99.753 72.678 99.585 72.71 99.425 72.774C99.269 72.834 99.131 72.924 99.011 73.044C98.891 73.164 98.795 73.316 98.723 73.5C98.655 73.68 98.621 73.89 98.621 74.13V78H97.547V74.13C97.547 73.642 97.449 73.278 97.253 73.038C97.057 72.798 96.771 72.678 96.395 72.678C96.131 72.678 95.887 72.75 95.663 72.894C95.439 73.034 95.233 73.226 95.045 73.47V78H93.971ZM107.132 75.264C106.64 75.28 106.22 75.32 105.872 75.384C105.528 75.444 105.246 75.524 105.026 75.624C104.81 75.724 104.652 75.842 104.552 75.978C104.456 76.114 104.408 76.266 104.408 76.434C104.408 76.594 104.434 76.732 104.486 76.848C104.538 76.964 104.608 77.06 104.696 77.136C104.788 77.208 104.894 77.262 105.014 77.298C105.138 77.33 105.27 77.346 105.41 77.346C105.598 77.346 105.77 77.328 105.926 77.292C106.082 77.252 106.228 77.196 106.364 77.124C106.504 77.052 106.636 76.966 106.76 76.866C106.888 76.766 107.012 76.652 107.132 76.524V75.264ZM103.682 72.78C104.018 72.456 104.38 72.214 104.768 72.054C105.156 71.894 105.586 71.814 106.058 71.814C106.398 71.814 106.7 71.87 106.964 71.982C107.228 72.094 107.45 72.25 107.63 72.45C107.81 72.65 107.946 72.892 108.038 73.176C108.13 73.46 108.176 73.772 108.176 74.112V78H107.702C107.598 78 107.518 77.984 107.462 77.952C107.406 77.916 107.362 77.848 107.33 77.748L107.21 77.172C107.05 77.32 106.894 77.452 106.742 77.568C106.59 77.68 106.43 77.776 106.262 77.856C106.094 77.932 105.914 77.99 105.722 78.03C105.534 78.074 105.324 78.096 105.092 78.096C104.856 78.096 104.634 78.064 104.426 78C104.218 77.932 104.036 77.832 103.88 77.7C103.728 77.568 103.606 77.402 103.514 77.202C103.426 76.998 103.382 76.758 103.382 76.482C103.382 76.242 103.448 76.012 103.58 75.792C103.712 75.568 103.926 75.37 104.222 75.198C104.518 75.026 104.904 74.886 105.38 74.778C105.856 74.666 106.44 74.602 107.132 74.586V74.112C107.132 73.64 107.03 73.284 106.826 73.044C106.622 72.8 106.324 72.678 105.932 72.678C105.668 72.678 105.446 72.712 105.266 72.78C105.09 72.844 104.936 72.918 104.804 73.002C104.676 73.082 104.564 73.156 104.468 73.224C104.376 73.288 104.284 73.32 104.192 73.32C104.12 73.32 104.058 73.302 104.006 73.266C103.954 73.226 103.91 73.178 103.874 73.122L103.682 72.78ZM111.921 75.03C112.137 75.03 112.327 75 112.491 74.94C112.655 74.88 112.793 74.796 112.905 74.688C113.017 74.58 113.101 74.452 113.157 74.304C113.213 74.152 113.241 73.986 113.241 73.806C113.241 73.434 113.127 73.138 112.899 72.918C112.675 72.698 112.349 72.588 111.921 72.588C111.489 72.588 111.159 72.698 110.931 72.918C110.707 73.138 110.595 73.434 110.595 73.806C110.595 73.986 110.623 74.152 110.679 74.304C110.739 74.452 110.825 74.58 110.937 74.688C111.049 74.796 111.187 74.88 111.351 74.94C111.515 75 111.705 75.03 111.921 75.03ZM113.847 78.33C113.847 78.182 113.805 78.062 113.721 77.97C113.637 77.878 113.523 77.806 113.379 77.754C113.239 77.702 113.075 77.666 112.887 77.646C112.699 77.622 112.499 77.604 112.287 77.592C112.079 77.58 111.867 77.568 111.651 77.556C111.435 77.544 111.227 77.524 111.027 77.496C110.803 77.6 110.619 77.732 110.475 77.892C110.335 78.048 110.265 78.232 110.265 78.444C110.265 78.58 110.299 78.706 110.367 78.822C110.439 78.942 110.547 79.044 110.691 79.128C110.835 79.216 111.015 79.284 111.231 79.332C111.451 79.384 111.709 79.41 112.005 79.41C112.293 79.41 112.551 79.384 112.779 79.332C113.007 79.28 113.199 79.206 113.355 79.11C113.515 79.014 113.637 78.9 113.721 78.768C113.805 78.636 113.847 78.49 113.847 78.33ZM114.933 72.162V72.558C114.933 72.69 114.849 72.774 114.681 72.81L113.991 72.9C114.127 73.164 114.195 73.456 114.195 73.776C114.195 74.072 114.137 74.342 114.021 74.586C113.909 74.826 113.753 75.032 113.553 75.204C113.353 75.376 113.113 75.508 112.833 75.6C112.553 75.692 112.249 75.738 111.921 75.738C111.637 75.738 111.369 75.704 111.117 75.636C110.989 75.716 110.891 75.802 110.823 75.894C110.755 75.982 110.721 76.072 110.721 76.164C110.721 76.308 110.779 76.418 110.895 76.494C111.015 76.566 111.171 76.618 111.363 76.65C111.555 76.682 111.773 76.702 112.017 76.71C112.265 76.718 112.517 76.732 112.773 76.752C113.033 76.768 113.285 76.798 113.529 76.842C113.777 76.886 113.997 76.958 114.189 77.058C114.381 77.158 114.535 77.296 114.651 77.472C114.771 77.648 114.831 77.876 114.831 78.156C114.831 78.416 114.765 78.668 114.633 78.912C114.505 79.156 114.319 79.372 114.075 79.56C113.831 79.752 113.531 79.904 113.175 80.016C112.823 80.132 112.425 80.19 111.981 80.19C111.537 80.19 111.149 80.146 110.817 80.058C110.485 79.97 110.209 79.852 109.989 79.704C109.769 79.556 109.603 79.384 109.491 79.188C109.383 78.996 109.329 78.794 109.329 78.582C109.329 78.282 109.423 78.028 109.611 77.82C109.799 77.612 110.057 77.446 110.385 77.322C110.205 77.242 110.061 77.136 109.953 77.004C109.849 76.868 109.797 76.686 109.797 76.458C109.797 76.37 109.813 76.28 109.845 76.188C109.877 76.092 109.925 75.998 109.989 75.906C110.057 75.81 110.139 75.72 110.235 75.636C110.331 75.552 110.443 75.478 110.571 75.414C110.271 75.246 110.037 75.024 109.869 74.748C109.701 74.468 109.617 74.144 109.617 73.776C109.617 73.48 109.673 73.212 109.785 72.972C109.901 72.728 110.061 72.522 110.265 72.354C110.469 72.182 110.711 72.05 110.991 71.958C111.275 71.866 111.585 71.82 111.921 71.82C112.185 71.82 112.431 71.85 112.659 71.91C112.887 71.966 113.095 72.05 113.283 72.162H114.933ZM120.012 74.298C120.012 74.05 119.976 73.824 119.904 73.62C119.836 73.412 119.734 73.234 119.598 73.086C119.466 72.934 119.304 72.818 119.112 72.738C118.92 72.654 118.702 72.612 118.458 72.612C117.946 72.612 117.54 72.762 117.24 73.062C116.944 73.358 116.76 73.77 116.688 74.298H120.012ZM120.876 77.148C120.744 77.308 120.586 77.448 120.402 77.568C120.218 77.684 120.02 77.78 119.808 77.856C119.6 77.932 119.384 77.988 119.16 78.024C118.936 78.064 118.714 78.084 118.494 78.084C118.074 78.084 117.686 78.014 117.33 77.874C116.978 77.73 116.672 77.522 116.412 77.25C116.156 76.974 115.956 76.634 115.812 76.23C115.668 75.826 115.596 75.362 115.596 74.838C115.596 74.414 115.66 74.018 115.788 73.65C115.92 73.282 116.108 72.964 116.352 72.696C116.596 72.424 116.894 72.212 117.246 72.06C117.598 71.904 117.994 71.826 118.434 71.826C118.798 71.826 119.134 71.888 119.442 72.012C119.754 72.132 120.022 72.308 120.246 72.54C120.474 72.768 120.652 73.052 120.78 73.392C120.908 73.728 120.972 74.112 120.972 74.544C120.972 74.712 120.954 74.824 120.918 74.88C120.882 74.936 120.814 74.964 120.714 74.964H116.652C116.664 75.348 116.716 75.682 116.808 75.966C116.904 76.25 117.036 76.488 117.204 76.68C117.372 76.868 117.572 77.01 117.804 77.106C118.036 77.198 118.296 77.244 118.584 77.244C118.852 77.244 119.082 77.214 119.274 77.154C119.47 77.09 119.638 77.022 119.778 76.95C119.918 76.878 120.034 76.812 120.126 76.752C120.222 76.688 120.304 76.656 120.372 76.656C120.46 76.656 120.528 76.69 120.576 76.758L120.876 77.148Z" fill="#FEA800"/>
</svg>
