<svg width="590" height="402" viewBox="0 0 590 402" fill="none" xmlns="http://www.w3.org/2000/svg">
<path d="M578.95 95.2699L569.38 141.62L563.22 135.61L552.74 143.09L544.73 133.14L526.77 146.2L511.42 120.53L494.3 130.56L487.51 121.2L465.77 133.45L459.23 119.44L474.47 45.6299L556.17 62.4999L578.95 95.2699Z" fill="#EBEBEB"/>
<path d="M556.17 62.5L578.95 95.27L550.61 89.42L556.17 62.5Z" fill="#DBDBDB"/>
<path d="M567.34 150.88L553.31 218.88L443.26 196.16L457.19 128.71L463.73 142.71L485.48 130.46L492.26 139.82L509.39 129.8L524.73 155.47L542.7 142.41L550.7 152.35L561.19 144.88L567.34 150.88Z" fill="#EBEBEB"/>
<path d="M409.83 142.91L297.68 149.85L288.77 5.88998L372.05 0.72998L402.62 26.38L409.83 142.91Z" fill="#EBEBEB"/>
<path d="M372.05 0.72998L402.62 26.38L373.74 28.17L372.05 0.72998Z" fill="#DBDBDB"/>
<path d="M341 97.5999L340.56 94.3499C339.43 87.6199 341.27 80.0899 347.12 72.2199C352.4 65.2199 355.26 60.2199 354.94 54.5399C354.58 48.1399 350.33 44.0999 342.42 44.4199C337.899 44.6546 333.557 46.259 329.97 49.0199L326.52 41.2899C330.52 38.0399 337.52 35.6399 344.17 35.2899C358.6 34.4899 365.62 43.0299 366.17 52.5599C366.65 61.0899 362.23 67.4999 356.61 74.9899C351.45 81.8199 349.76 87.4499 350.49 93.8199L350.8 97.0799L341 97.5999ZM339.22 115.31C338.96 110.67 341.91 107.23 346.3 106.99C350.69 106.75 353.89 109.83 354.15 114.48C354.39 118.87 351.7 122.41 347.06 122.67C342.63 122.92 339.43 119.7 339.18 115.31H339.22Z" fill="#DBDBDB"/>
<path d="M60.48 73.11L49.2 68L47.63 71.45C47.3982 71.943 47.0365 72.3636 46.5837 72.6667C46.1309 72.9697 45.6042 73.1437 45.06 73.17C44.4401 73.1903 43.8222 73.2504 43.21 73.35C42.6726 73.4298 42.1237 73.3622 41.6217 73.1544C41.1198 72.9465 40.6837 72.6063 40.36 72.17L38.15 69.08L28.08 76.3L30.29 79.39C30.5974 79.836 30.7783 80.3569 30.8135 80.8974C30.8487 81.4379 30.7369 81.9779 30.49 82.46C30.2049 83.0099 29.9479 83.574 29.72 84.15C29.5219 84.6579 29.1891 85.1022 28.7575 85.4352C28.3258 85.7682 27.8116 85.9773 27.27 86.04L23.5 86.41L24.71 98.74L28.5 98.36C29.0435 98.3166 29.5886 98.4221 30.0767 98.6653C30.5647 98.9084 30.9773 99.28 31.27 99.74C31.43 100 31.6 100.25 31.78 100.5C31.96 100.75 32.14 100.99 32.33 101.23C32.6751 101.65 32.897 102.157 32.9712 102.696C33.0453 103.234 32.9687 103.782 32.75 104.28L31.17 107.76L42.46 112.88L44.03 109.41C44.264 108.917 44.6279 108.498 45.0824 108.197C45.537 107.895 46.0651 107.724 46.61 107.7C47.2229 107.675 47.8339 107.615 48.44 107.52C48.9774 107.44 49.5263 107.508 50.0283 107.716C50.5302 107.923 50.9663 108.264 51.29 108.7L53.5 111.79L63.58 104.57L61.37 101.48C61.0532 101.038 60.8665 100.516 60.8311 99.9736C60.7958 99.431 60.9132 98.8893 61.17 98.41C61.4486 97.8632 61.6989 97.3025 61.92 96.73C62.1123 96.2184 62.4435 95.7705 62.8762 95.4366C63.309 95.1028 63.8263 94.8961 64.37 94.84L68.16 94.46L66.94 82.13L63.15 82.5C62.6099 82.5474 62.0671 82.4446 61.5818 82.2028C61.0965 81.961 60.6875 81.5897 60.4 81.13C60.23 80.87 60.06 80.62 59.88 80.37C59.7 80.12 59.52 79.87 59.33 79.64C58.9872 79.215 58.767 78.7044 58.693 78.1634C58.619 77.6224 58.694 77.0715 58.91 76.57L60.48 73.11ZM54.08 84.52C55.2494 86.1519 55.9086 88.0939 55.9742 90.1004C56.0398 92.107 55.5089 94.0879 54.4487 95.7927C53.3884 97.4975 51.8463 98.8496 50.0176 99.6779C48.1888 100.506 46.1555 100.774 44.1748 100.446C42.194 100.119 40.3548 99.2117 38.8898 97.839C37.4248 96.4663 36.3997 94.69 35.9443 92.7348C35.4888 90.7795 35.6235 88.7331 36.3311 86.8543C37.0388 84.9756 38.2878 83.3489 39.92 82.18C42.1082 80.613 44.8291 79.9792 47.4845 80.418C50.1399 80.8568 52.5123 82.3323 54.08 84.52Z" fill="#EBEBEB"/>
<path d="M570.38 236.71L562.86 241.05L564.19 243.35C564.389 243.68 564.488 244.06 564.475 244.445C564.463 244.83 564.339 245.203 564.12 245.52C563.89 245.88 563.67 246.25 563.47 246.64C563.306 246.985 563.046 247.276 562.722 247.478C562.397 247.68 562.022 247.785 561.64 247.78H559V256.47H561.66C562.042 256.465 562.417 256.57 562.742 256.772C563.066 256.974 563.326 257.265 563.49 257.61C563.69 258 563.91 258.37 564.14 258.73C564.359 259.047 564.483 259.42 564.495 259.805C564.507 260.19 564.409 260.57 564.21 260.9L562.88 263.2L570.4 267.54L571.74 265.23C571.934 264.902 572.216 264.635 572.553 264.459C572.89 264.282 573.27 264.203 573.65 264.23H574.93C575.31 264.204 575.689 264.284 576.026 264.46C576.363 264.637 576.645 264.903 576.84 265.23L578.18 267.55L585.69 263.21L584.36 260.9C584.171 260.568 584.078 260.19 584.092 259.809C584.106 259.427 584.227 259.057 584.44 258.74C584.67 258.38 584.89 258 585.09 257.62C585.254 257.275 585.514 256.984 585.838 256.782C586.163 256.58 586.538 256.475 586.92 256.48H589.58V247.79H586.9C586.518 247.795 586.143 247.69 585.818 247.488C585.494 247.286 585.234 246.995 585.07 246.65C584.87 246.27 584.65 245.89 584.42 245.53C584.207 245.213 584.086 244.843 584.072 244.461C584.058 244.08 584.151 243.702 584.34 243.37L585.67 241.06L578.16 236.72L576.82 239C576.626 239.328 576.344 239.595 576.007 239.771C575.67 239.948 575.29 240.027 574.91 240H574.27H573.63C573.249 240.026 572.868 239.946 572.53 239.769C572.191 239.593 571.907 239.327 571.71 239L570.38 236.71ZM574.27 245.01C575.679 245.008 577.057 245.424 578.229 246.206C579.402 246.987 580.316 248.099 580.856 249.401C581.396 250.702 581.538 252.134 581.264 253.517C580.989 254.899 580.311 256.168 579.315 257.165C578.318 258.161 577.049 258.839 575.667 259.114C574.284 259.388 572.852 259.246 571.551 258.706C570.249 258.166 569.137 257.252 568.356 256.079C567.574 254.907 567.158 253.529 567.16 252.12C567.159 251.185 567.342 250.26 567.698 249.396C568.055 248.532 568.579 247.747 569.239 247.086C569.899 246.425 570.684 245.9 571.547 245.542C572.41 245.184 573.335 245 574.27 245V245.01Z" fill="#EBEBEB"/>
<path d="M83.2999 36.16L76.4099 41.44L77.9999 43.55C78.2371 43.8506 78.3829 44.213 78.4202 44.5942C78.4574 44.9753 78.3844 45.3591 78.2099 45.7C78.0186 46.0892 77.8516 46.49 77.7099 46.9C77.5867 47.2611 77.365 47.5807 77.07 47.8228C76.775 48.0648 76.4182 48.2197 76.0399 48.27L73.3999 48.61L74.5199 57.22L77.1599 56.88C77.5442 56.8264 77.9358 56.8825 78.2896 57.0417C78.6435 57.2009 78.9451 57.4568 79.1599 57.78C79.4007 58.1278 79.6611 58.4617 79.9399 58.78C80.1975 59.0633 80.3684 59.4146 80.4322 59.7922C80.496 60.1698 80.4501 60.5577 80.2999 60.91L79.2999 63.37L87.2999 66.7L88.2999 64.24C88.4487 63.8871 88.6934 63.5829 89.0063 63.362C89.3191 63.1411 89.6876 63.0122 90.0699 62.99L90.7099 62.92L91.3399 62.82C91.71 62.7502 92.0921 62.7833 92.4447 62.9155C92.7973 63.0477 93.1069 63.2741 93.3399 63.57L94.9699 65.7L101.86 60.42L100.25 58.31C100.017 58.0051 99.8745 57.6415 99.8374 57.2599C99.8003 56.8783 99.8704 56.4939 100.04 56.15C100.229 55.7633 100.396 55.366 100.54 54.96C100.663 54.5988 100.885 54.2792 101.18 54.0372C101.475 53.7951 101.832 53.6402 102.21 53.59L104.85 53.25L103.73 44.64L101.09 44.98C100.707 45.0346 100.316 44.98 99.9619 44.8226C99.6082 44.6652 99.3059 44.4113 99.0899 44.09C98.8399 43.73 98.5799 43.39 98.2999 43.09C98.067 42.8006 97.9162 42.4538 97.8634 42.0861C97.8106 41.7184 97.8578 41.3432 97.9999 41L98.9999 38.54L90.9999 35.21L89.9999 37.67C89.8492 38.0215 89.604 38.3244 89.2915 38.5451C88.9791 38.7657 88.6116 38.8955 88.2299 38.92L87.5899 38.98L86.9999 39C86.6298 39.0697 86.2477 39.0367 85.8951 38.9044C85.5425 38.7722 85.2329 38.5458 84.9999 38.25L83.2999 36.16ZM88.2299 43.89C89.6229 43.7109 91.0377 43.9484 92.2959 44.5725C93.554 45.1966 94.5992 46.1793 95.2995 47.3967C95.9998 48.6141 96.3238 50.0116 96.2308 51.4129C96.1378 52.8143 95.6318 54.1567 94.7767 55.2708C93.9216 56.385 92.7557 57.2209 91.4261 57.6732C90.0964 58.1254 88.6627 58.1738 87.3056 57.8122C85.9485 57.4505 84.7289 56.6951 83.8007 55.6411C82.8725 54.5871 82.2772 53.2819 82.0899 51.89C81.9649 50.9611 82.0249 50.0167 82.2662 49.1111C82.5075 48.2055 82.9255 47.3565 83.4962 46.613C84.0668 45.8695 84.7788 45.2462 85.5912 44.7789C86.4036 44.3116 87.3003 44.0095 88.2299 43.89Z" fill="#EBEBEB"/>
<path d="M287 401.71C445.362 401.71 573.74 387.643 573.74 370.29C573.74 352.937 445.362 338.87 287 338.87C128.638 338.87 0.259766 352.937 0.259766 370.29C0.259766 387.643 128.638 401.71 287 401.71Z" fill="#EBEBEB"/>
<path d="M488.32 377.05H183.64L227.69 127.2H532.37L488.32 377.05Z" fill="#FEA800"/>
<path d="M331.97 101.32H232.26L227.69 127.2H334.4L331.97 101.32Z" fill="#FEA800"/>
<g opacity="0.1">
<path d="M488.32 377.05H183.64L227.69 127.2H532.37L488.32 377.05Z" fill="black"/>
<path d="M331.97 101.32H232.26L227.69 127.2H334.4L331.97 101.32Z" fill="black"/>
</g>
<path d="M221.5 111.88C220.833 109.019 220.833 106.042 221.5 103.18C222.167 106.042 222.167 109.019 221.5 111.88Z" fill="#263238"/>
<path d="M212.64 114.44C211.622 113.384 210.745 112.201 210.03 110.92C209.281 109.666 208.693 108.322 208.28 106.92C209.301 107.97 210.179 109.15 210.89 110.43C211.638 111.689 212.226 113.036 212.64 114.44Z" fill="#263238"/>
<path d="M206.24 121.09C203.43 120.236 200.854 118.747 198.71 116.74C200.112 117.147 201.456 117.732 202.71 118.48C203.991 119.199 205.177 120.076 206.24 121.09Z" fill="#263238"/>
<path d="M204 130.05C201.139 130.717 198.162 130.717 195.3 130.05C198.162 129.383 201.139 129.383 204 130.05Z" fill="#263238"/>
<path d="M206.6 138.91C205.54 139.923 204.357 140.8 203.08 141.52C201.826 142.268 200.482 142.853 199.08 143.26C200.136 142.242 201.319 141.365 202.6 140.65C203.852 139.899 205.197 139.314 206.6 138.91Z" fill="#263238"/>
<path d="M213.24 145.3C212.389 148.114 210.9 150.694 208.89 152.84C209.297 151.436 209.886 150.092 210.64 148.84C211.353 147.554 212.227 146.365 213.24 145.3Z" fill="#263238"/>
<path d="M222.2 147.51C222.549 148.933 222.717 150.395 222.7 151.86C222.722 153.326 222.553 154.788 222.2 156.21C221.842 154.789 221.673 153.326 221.7 151.86C221.683 150.395 221.851 148.933 222.2 147.51Z" fill="#263238"/>
<path d="M231.06 145C232.078 146.056 232.956 147.239 233.67 148.52C234.421 149.772 235.006 151.117 235.41 152.52C233.4 150.374 231.911 147.794 231.06 144.98V145Z" fill="#263238"/>
<path d="M237.45 138.3C238.853 138.704 240.198 139.289 241.45 140.04C242.731 140.755 243.914 141.632 244.97 142.65C243.567 142.246 242.222 141.661 240.97 140.91C239.689 140.196 238.506 139.318 237.45 138.3Z" fill="#263238"/>
<path d="M239.66 129.34C242.525 128.673 245.505 128.673 248.37 129.34C245.505 130.007 242.525 130.007 239.66 129.34Z" fill="#263238"/>
<path d="M237.1 120.48C238.159 119.468 239.341 118.594 240.62 117.88C241.87 117.122 243.215 116.533 244.62 116.13C242.474 118.14 239.894 119.629 237.08 120.48H237.1Z" fill="#263238"/>
<path d="M230.45 114.09C230.862 112.69 231.446 111.346 232.19 110.09C232.905 108.809 233.782 107.626 234.8 106.57C234.396 107.973 233.812 109.318 233.06 110.57C232.346 111.851 231.468 113.034 230.45 114.09Z" fill="#263238"/>
<path d="M487.87 377.05H182.54L139.18 136.27H444.52L487.87 377.05Z" fill="#FEA800"/>
<path d="M244.99 283.46C251.999 283.46 257.68 277.779 257.68 270.77C257.68 263.762 251.999 258.08 244.99 258.08C237.982 258.08 232.3 263.762 232.3 270.77C232.3 277.779 237.982 283.46 244.99 283.46Z" fill="#263238"/>
<path d="M345.31 283.46C352.319 283.46 358 277.779 358 270.77C358 263.762 352.319 258.08 345.31 258.08C338.302 258.08 332.62 263.762 332.62 270.77C332.62 277.779 338.302 283.46 345.31 283.46Z" fill="#263238"/>
<path d="M313.38 285.49L312.68 284.16C312.62 284.04 306.06 271.92 292.87 271.92C280.87 271.92 277.87 283.33 277.79 283.82L277.43 285.27L274.52 284.57L274.87 283.11C274.87 282.97 278.45 268.92 292.87 268.92C307.87 268.92 315.04 282.2 315.34 282.77L316.04 284.09L313.38 285.49Z" fill="#263238"/>
<path d="M157.358 152.375L156 152.473L157.809 177.59L159.168 177.492L157.358 152.375Z" fill="#FEA800"/>
<path d="M160.09 190.455L158.732 190.553L159.413 200.008L160.771 199.91L160.09 190.455Z" fill="#FEA800"/>
<path d="M475.486 305.999H183.821C180.574 305.941 177.464 304.683 175.09 302.467C172.716 300.252 171.246 297.236 170.964 294.001L156.637 94.9856C156.504 93.4508 156.694 91.905 157.194 90.448C157.694 88.9909 158.495 87.6548 159.543 86.5258C160.591 85.3967 161.864 84.4998 163.28 83.8927C164.696 83.2856 166.223 82.9818 167.764 83.0008H459.429C462.674 83.0589 465.782 84.3152 468.156 86.5279C470.529 88.7406 472 91.7532 472.286 94.9856L486.613 294.001C486.746 295.536 486.556 297.083 486.056 298.54C485.556 299.998 484.756 301.335 483.708 302.465C482.66 303.595 481.387 304.493 479.971 305.102C478.555 305.711 477.027 306.016 475.486 305.999Z" fill="#FEA800"/>
<path d="M476.603 305.999H184.938C181.691 305.941 178.581 304.683 176.207 302.467C173.833 300.252 172.364 297.236 172.081 294.001L157.754 94.9856C157.621 93.4508 157.811 91.905 158.311 90.448C158.812 88.9909 159.612 87.6548 160.66 86.5258C161.708 85.3967 162.981 84.4998 164.397 83.8927C165.813 83.2856 167.341 82.9818 168.881 83.0008H460.547C463.791 83.0589 466.899 84.3152 469.273 86.5279C471.647 88.7406 473.118 91.7532 473.403 94.9856L487.73 294.001C487.865 295.537 487.677 297.084 487.178 298.543C486.678 300.001 485.878 301.339 484.83 302.47C483.781 303.6 482.508 304.498 481.091 305.106C479.674 305.714 478.145 306.018 476.603 305.999Z" fill="#FEA800"/>
<path opacity="0.5" d="M476.603 305.999H184.938C181.691 305.941 178.581 304.683 176.207 302.467C173.833 300.252 172.364 297.236 172.081 294.001L157.754 94.9856C157.621 93.4508 157.811 91.905 158.311 90.448C158.812 88.9909 159.612 87.6548 160.66 86.5258C161.708 85.3967 162.981 84.4998 164.397 83.8927C165.813 83.2856 167.341 82.9818 168.881 83.0008H460.547C463.791 83.0589 466.899 84.3152 469.273 86.5279C471.647 88.7406 473.118 91.7532 473.403 94.9856L487.73 294.001C487.865 295.537 487.677 297.084 487.178 298.543C486.678 300.001 485.878 301.339 484.83 302.47C483.781 303.6 482.508 304.498 481.091 305.106C479.674 305.714 478.145 306.018 476.603 305.999Z" fill="white"/>
<path d="M460.984 88.9956H169.319H168.338C160.888 89.6085 162.414 100.953 169.931 100.953H462.087C469.619 100.953 469.51 89.6085 461.965 88.9956H460.984Z" fill="#FEA800"/>
<path d="M176.917 94.986C176.946 95.3371 176.9 95.6903 176.784 96.0228C176.668 96.3553 176.483 96.6598 176.242 96.9164C176 97.1731 175.708 97.3763 175.383 97.513C175.059 97.6497 174.709 97.7167 174.357 97.7098C173.617 97.6994 172.906 97.4154 172.363 96.9124C171.82 96.4095 171.482 95.7232 171.415 94.986C171.387 94.6361 171.432 94.2841 171.547 93.9525C171.663 93.6209 171.846 93.3172 172.086 93.0607C172.326 92.8043 172.616 92.6008 172.939 92.4632C173.263 92.3257 173.611 92.2573 173.962 92.2622C174.704 92.2693 175.418 92.5518 175.964 93.0551C176.51 93.5584 176.85 94.2465 176.917 94.986Z" fill="#FAFAFA"/>
<path d="M186.275 94.986C186.303 95.3371 186.258 95.6903 186.142 96.0228C186.025 96.3553 185.84 96.6598 185.599 96.9164C185.358 97.1731 185.065 97.3763 184.741 97.513C184.416 97.6497 184.066 97.7167 183.714 97.7098C182.974 97.6994 182.264 97.4154 181.721 96.9124C181.177 96.4095 180.84 95.7232 180.772 94.986C180.744 94.6361 180.789 94.2841 180.904 93.9525C181.02 93.6209 181.204 93.3172 181.443 93.0607C181.683 92.8043 181.974 92.6008 182.297 92.4632C182.62 92.3257 182.968 92.2573 183.319 92.2622C184.062 92.2693 184.775 92.5518 185.321 93.0551C185.867 93.5584 186.207 94.2465 186.275 94.986Z" fill="#FAFAFA"/>
<path d="M195.618 94.9863C195.646 95.3362 195.601 95.6883 195.486 96.0198C195.37 96.3514 195.187 96.6551 194.947 96.9116C194.707 97.168 194.416 97.3715 194.093 97.5091C193.77 97.6466 193.422 97.715 193.071 97.7101C192.33 97.7027 191.618 97.4197 191.074 96.9162C190.53 96.4126 190.193 95.7246 190.129 94.9863C190.099 94.6359 190.142 94.2829 190.257 93.9504C190.371 93.618 190.555 93.3133 190.795 93.0564C191.035 92.7995 191.327 92.596 191.651 92.4592C191.975 92.3224 192.324 92.2554 192.676 92.2625C193.416 92.2729 194.126 92.5569 194.669 93.0599C195.213 93.5628 195.55 94.2491 195.618 94.9863Z" fill="#FAFAFA"/>
<path d="M468.87 286.141H189.884C188.705 286.121 187.576 285.664 186.715 284.859C185.854 284.054 185.324 282.957 185.226 281.782L173.445 118.122C173.393 117.561 173.461 116.994 173.644 116.461C173.827 115.928 174.122 115.439 174.508 115.028C174.894 114.617 175.364 114.293 175.885 114.078C176.406 113.862 176.967 113.76 177.531 113.778H456.585C457.763 113.794 458.892 114.248 459.753 115.051C460.614 115.854 461.145 116.949 461.243 118.122L473.037 281.782C473.088 282.351 473.017 282.924 472.828 283.464C472.64 284.003 472.338 284.495 471.943 284.908C471.548 285.321 471.07 285.644 470.54 285.857C470.01 286.069 469.44 286.166 468.87 286.141Z" fill="white"/>
<path d="M351.308 223.794L346.76 160.711L333.004 152.431H295.13L300.278 223.794H351.308Z" fill="white"/>
<path d="M351.31 224.45H300.279C300.11 224.454 299.946 224.393 299.822 224.278C299.698 224.164 299.622 224.006 299.612 223.838L294.477 152.474C294.471 152.384 294.483 152.294 294.514 152.21C294.544 152.125 294.592 152.048 294.654 151.984C294.714 151.916 294.788 151.862 294.87 151.825C294.952 151.787 295.041 151.767 295.131 151.766H333.006C333.125 151.77 333.242 151.802 333.346 151.861L347.101 160.141C347.194 160.194 347.272 160.269 347.329 160.359C347.386 160.45 347.42 160.552 347.428 160.659L351.95 223.742C351.959 223.834 351.948 223.927 351.918 224.014C351.887 224.101 351.837 224.18 351.773 224.246C351.713 224.31 351.642 224.361 351.562 224.396C351.483 224.431 351.397 224.45 351.31 224.45ZM300.919 223.089H350.588L346.121 161.054L332.883 153.087H295.839L300.919 223.089Z" fill="#FEA800"/>
<path d="M346.76 160.711L333.005 152.431L338.058 163.408L346.76 160.711Z" fill="#EBEBEB"/>
<path d="M338.059 164.064C337.933 164.063 337.81 164.027 337.704 163.959C337.598 163.892 337.513 163.796 337.46 163.682L332.407 152.705C332.348 152.576 332.331 152.432 332.358 152.293C332.384 152.154 332.454 152.027 332.557 151.929C332.665 151.837 332.799 151.78 332.941 151.768C333.082 151.756 333.224 151.788 333.347 151.861L347.102 160.141C347.213 160.208 347.302 160.305 347.36 160.421C347.418 160.536 347.442 160.666 347.429 160.795C347.411 160.92 347.358 161.038 347.276 161.135C347.194 161.231 347.087 161.302 346.966 161.34L338.249 164.064H338.059ZM334.504 154.094L338.413 162.606L345.222 160.523L334.504 154.094Z" fill="#FEA800"/>
<path d="M316.538 184.574C316.559 184.944 316.503 185.314 316.376 185.662C316.248 186.01 316.051 186.328 315.796 186.597C315.541 186.866 315.233 187.08 314.893 187.227C314.552 187.373 314.185 187.448 313.815 187.447C313.037 187.433 312.292 187.132 311.724 186.601C311.156 186.071 310.804 185.348 310.737 184.574C310.702 184.2 310.747 183.823 310.869 183.467C310.991 183.112 311.188 182.787 311.445 182.514C311.703 182.241 312.016 182.025 312.364 181.883C312.711 181.74 313.085 181.673 313.46 181.686C314.239 181.704 314.984 182.008 315.552 182.541C316.12 183.074 316.471 183.798 316.538 184.574Z" fill="#FEA800"/>
<path d="M335.197 184.572C335.23 184.945 335.184 185.321 335.061 185.674C334.937 186.028 334.741 186.351 334.483 186.623C334.225 186.894 333.913 187.108 333.567 187.25C333.22 187.392 332.848 187.459 332.473 187.446C331.694 187.432 330.948 187.131 330.377 186.601C329.807 186.07 329.452 185.348 329.382 184.572C329.36 184.201 329.413 183.829 329.54 183.479C329.667 183.13 329.864 182.81 330.119 182.539C330.375 182.269 330.683 182.054 331.024 181.907C331.366 181.76 331.734 181.684 332.106 181.685C332.888 181.696 333.638 181.997 334.209 182.531C334.781 183.065 335.133 183.793 335.197 184.572Z" fill="#FEA800"/>
<path d="M340.481 203.282C340.315 203.279 340.156 203.215 340.036 203.101C339.915 202.988 339.84 202.834 339.827 202.669C339.486 198.025 332.214 194.252 323.62 194.252C317.914 194.252 312.793 195.955 310.26 198.678C309.739 199.18 309.332 199.787 309.064 200.459C308.797 201.13 308.675 201.851 308.707 202.573C308.714 202.663 308.702 202.753 308.674 202.838C308.645 202.923 308.6 203.001 308.542 203.069C308.423 203.206 308.255 203.289 308.074 203.302C307.893 203.315 307.715 203.255 307.579 203.136C307.442 203.018 307.358 202.849 307.345 202.669C307.305 201.766 307.454 200.865 307.782 200.023C308.11 199.181 308.611 198.417 309.252 197.78C311.976 194.797 317.519 192.931 323.579 192.931C333.017 192.931 340.712 197.167 341.093 202.573C341.099 202.659 341.087 202.745 341.06 202.827C341.032 202.908 340.988 202.983 340.931 203.048C340.874 203.113 340.805 203.165 340.728 203.203C340.65 203.241 340.566 203.263 340.481 203.268V203.282Z" fill="#FEA800"/>
<path d="M305.875 178.744C305.709 178.741 305.55 178.678 305.426 178.567C305.302 178.442 305.232 178.273 305.232 178.097C305.232 177.921 305.302 177.753 305.426 177.628L308.327 174.509C308.451 174.389 308.617 174.322 308.79 174.322C308.962 174.322 309.128 174.389 309.253 174.509C309.314 174.57 309.362 174.642 309.395 174.721C309.428 174.801 309.445 174.886 309.445 174.972C309.445 175.058 309.428 175.143 309.395 175.223C309.362 175.302 309.314 175.374 309.253 175.435L306.352 178.554C306.29 178.616 306.215 178.665 306.133 178.698C306.051 178.731 305.964 178.746 305.875 178.744Z" fill="#FEA800"/>
<path d="M339.121 178.744C338.956 178.737 338.798 178.674 338.672 178.567L335.335 175.449C335.272 175.388 335.222 175.315 335.188 175.234C335.153 175.153 335.136 175.066 335.136 174.979C335.136 174.891 335.153 174.804 335.188 174.724C335.222 174.643 335.272 174.57 335.335 174.509C335.459 174.389 335.625 174.322 335.798 174.322C335.971 174.322 336.137 174.389 336.261 174.509L339.598 177.628C339.659 177.688 339.707 177.76 339.74 177.84C339.773 177.919 339.79 178.005 339.79 178.091C339.79 178.177 339.773 178.262 339.74 178.341C339.707 178.421 339.659 178.493 339.598 178.554C339.468 178.675 339.298 178.743 339.121 178.744Z" fill="#FEA800"/>
<path d="M291.018 237.89H294.095L298.535 243.801L298.113 237.89H301.218L301.981 248.567H298.835L294.422 242.698L294.845 248.567H291.739L291.018 237.89Z" fill="#FEA800"/>
<path d="M303.371 243.227C303.266 242.502 303.316 241.763 303.518 241.059C303.72 240.354 304.069 239.701 304.542 239.142C305.06 238.633 305.679 238.24 306.36 237.988C307.041 237.737 307.768 237.634 308.492 237.684C310.026 237.601 311.534 238.113 312.7 239.114C313.768 240.178 314.387 241.611 314.43 243.118C314.542 244.158 314.402 245.209 314.021 246.183C313.668 246.967 313.077 247.62 312.332 248.049C311.438 248.528 310.432 248.758 309.418 248.716C308.376 248.749 307.339 248.554 306.381 248.144C305.541 247.741 304.833 247.108 304.338 246.319C303.754 245.389 303.42 244.324 303.371 243.227ZM306.68 243.227C306.667 244.063 306.936 244.879 307.443 245.543C307.656 245.777 307.917 245.962 308.209 246.084C308.501 246.206 308.816 246.263 309.132 246.251C309.434 246.272 309.736 246.22 310.014 246.099C310.291 245.978 310.535 245.792 310.725 245.556C311.116 244.812 311.246 243.959 311.093 243.132C311.099 242.331 310.829 241.552 310.33 240.926C310.112 240.696 309.847 240.515 309.554 240.395C309.26 240.275 308.945 240.22 308.628 240.231C308.332 240.218 308.036 240.276 307.767 240.399C307.497 240.522 307.26 240.707 307.075 240.939C306.677 241.641 306.537 242.46 306.68 243.255V243.227Z" fill="#FEA800"/>
<path d="M320.831 237.888H325.733C326.542 237.862 327.347 237.996 328.103 238.283C328.702 238.534 329.233 238.921 329.656 239.413C330.085 239.913 330.413 240.491 330.623 241.116C330.844 241.786 330.981 242.481 331.031 243.186C331.136 244.076 331.066 244.978 330.827 245.841C330.639 246.439 330.307 246.982 329.86 247.421C329.487 247.816 329.018 248.107 328.498 248.266C327.865 248.449 327.21 248.55 326.551 248.565H321.661L320.831 237.888ZM324.303 240.312L324.726 246.141H325.529C326.026 246.174 326.524 246.094 326.986 245.909C327.291 245.733 327.516 245.445 327.613 245.106C327.769 244.501 327.806 243.872 327.722 243.254C327.748 242.423 327.494 241.607 327 240.939C326.747 240.71 326.449 240.536 326.126 240.428C325.802 240.32 325.46 240.281 325.121 240.312H324.303Z" fill="#FEA800"/>
<path d="M338.943 246.797H335.197L334.802 248.567H331.438L334.68 237.89H338.33L343.11 248.567H339.651L338.943 246.797ZM338.085 244.495L336.641 240.655L335.742 244.495H338.085Z" fill="#FEA800"/>
<path d="M341.557 237.89H351.58L351.771 240.532H348.407L348.979 248.567H345.683L345.111 240.532H341.747L341.557 237.89Z" fill="#FEA800"/>
<path d="M359.262 246.797H355.517L355.122 248.567H351.758L354.999 237.89H358.595L363.361 248.567H359.916L359.262 246.797ZM358.404 244.495L356.947 240.655L356.034 244.495H358.404Z" fill="#FEA800"/>
</svg>
